<?xml version="1.0" encoding="iso-8859-1"?>
<!-- Generator: Adobe Illustrator 19.1.0, SVG Export Plug-In . SVG Version: 6.00 Build 0)  -->
<svg version="1.1" id="Capa_1" xmlns="http://www.w3.org/2000/svg" xmlns:xlink="http://www.w3.org/1999/xlink" x="0px" y="0px"
	 viewBox="0 0 83.32 83.32" style="enable-background:new 0 0 83.32 83.32;" xml:space="preserve">
<path d="M83.32,53.012c0-5.587-12.711-8.289-20.288-9.402c-0.329-0.05-0.648,0.048-0.893,0.241c-1.375-1.869-2.927-3.376-4.6-3.989
	c-1.151-0.423-2.322-0.393-3.489-0.058c-0.025-1.522-0.425-4.676-3.134-6.429c-3.655-2.364-8.703,2.092-8.927,2.293
	c-0.073,0.069-0.346,0.328-0.76,0.741c-0.02-0.005-0.037-0.018-0.058-0.021c-3.713-0.57-7.134-0.441-10.165,0.382
	c-4.77,1.295-8.418,2.881-11.508,5.216l0.164-6.975c6.1-2.341,10.289-11.216,10.289-22.054c0-3.099-7.108-5.016-13.693-5.016
	c-13.78,0-14.85,3.84-14.85,5.016c0,3.47,0.454,6.699,1.291,9.569c-0.016,0.09-0.018,0.182,0.011,0.274
	c0.007,0.023,0.165,0.503,0.483,1.249c0.643,1.806,1.449,3.442,2.396,4.882c0.028,0.078,0.07,0.152,0.133,0.215
	c0.008,0.008,0.018,0.01,0.026,0.017c0.338,0.498,0.692,0.972,1.064,1.418c0.023,0.037,0.04,0.076,0.072,0.108
	c0.014,0.014,0.033,0.02,0.049,0.032c1.772,2.08,3.906,3.573,6.322,4.308l-0.198,9.956c-6.048,1.425-12.33,3.781-12.909,7.471
	C0.056,52.622,0,52.81,0,53.012v4.947c0,0.011,0.003,0.022,0.003,0.033C0.003,58.004,0,58.014,0,58.026
	c0,2.976,3.757,5.445,11.169,7.349c0.016,0.256,0.111,0.509,0.297,0.714c5.137,5.644,17.337,9.291,31.081,9.291
	c15.106,0,27.993-4.311,32.208-10.746c5.682-1.789,8.56-4.004,8.56-6.607c0-0.004-0.001-0.007-0.001-0.011
	c0.001-0.019,0.006-0.037,0.006-0.056V53.012z M80.976,53.012c0,2.818-9.427,6.516-25.486,7.921
	c0.562-0.364,1.055-0.792,1.456-1.301c0.095-0.12,0.182-0.243,0.266-0.368c6.225-0.688,16.286-2.338,16.286-5.804
	c0-1.8-2.729-3.317-8.11-4.51c-0.078-0.017-0.154-0.016-0.228-0.003c-0.474-0.962-0.995-1.937-1.557-2.878
	C75.528,47.929,80.976,50.947,80.976,53.012z M58.211,52.969c-0.289-1.943-0.917-3.707-1.339-4.737
	c0.471,0.345,1.118,1.291,1.831,2.584C58.712,51.146,58.693,52.139,58.211,52.969z M59.63,52.615
	c0.111,0.228,0.222,0.46,0.334,0.697c-0.222,0.413-0.771,1.306-1.602,1.857c0.004-0.198,0.003-0.397-0.003-0.595
	C59.041,54.025,59.422,53.299,59.63,52.615z M58.241,56.549c1.061-0.418,1.828-1.269,2.308-1.957
	c0.416,0.938,0.821,1.912,1.198,2.877c-1.192,0.195-2.488,0.377-3.894,0.543C58.032,57.54,58.159,57.05,58.241,56.549z
	 M56.85,46.945c-1.468-0.317-2.705,0.98-4.014,2.352c-0.93,0.974-1.984,2.078-3.184,2.678c-0.08,0.04-0.143,0.098-0.195,0.164
	c-0.411-0.236-0.849-0.461-1.33-0.668c1.349-0.796,2.839-2.205,4.291-3.585c1.428-1.356,3.046-2.894,3.769-3.011
	c1.06,0.213,4.534,6.416,7.291,12.289c-0.181,0.034-0.362,0.069-0.549,0.102C61.841,54.453,58.921,47.389,56.85,46.945z
	 M53.907,56.301c-0.394,0.143-0.768,0.085-0.991,0.024c-0.026-0.122-0.06-0.245-0.096-0.369c0.028-0.044,0.054-0.09,0.07-0.142
	c0.295-0.982,1.608-1.609,2.517-1.908c0.023,0.24,0.037,0.48,0.042,0.722c-0.106,0.059-0.2,0.142-0.254,0.262
	C54.853,55.64,54.42,56.115,53.907,56.301z M55.067,56.978c-0.147,0.363-0.332,0.707-0.585,1.012
	c-0.433,0.523-1.017,0.915-1.742,1.185c0.14-0.421,0.272-0.985,0.288-1.64c0.115,0.015,0.235,0.025,0.365,0.025
	c0.273,0,0.576-0.039,0.889-0.149C54.563,57.313,54.824,57.166,55.067,56.978z M52.811,53.976c0.552-1.082,1.545-1.848,2.188-2.256
	c0.086,0.32,0.168,0.656,0.237,1.011C54.619,52.919,53.606,53.305,52.811,53.976z M51.596,53.813
	c-0.31-0.346-0.671-0.672-1.078-0.98c1.227-0.705,2.252-1.772,3.165-2.727c0.194-0.203,0.381-0.397,0.566-0.585
	c0.065,0.151,0.22,0.528,0.397,1.04C53.86,51.017,52.302,52.099,51.596,53.813z M56.161,43.707c-0.037,0-0.073,0.002-0.109,0.008
	c-1.13,0.174-2.664,1.632-4.442,3.321c-1.579,1.501-3.369,3.202-4.702,3.749c-0.084,0.034-0.151,0.088-0.208,0.151
	c-0.461-0.153-0.942-0.298-1.452-0.431c1.408-0.9,2.886-2.223,4.326-3.517c2.312-2.078,4.704-4.227,6.542-4.381
	c2.07-0.179,6.604,7.957,9.36,14.14c-0.264,0.06-0.535,0.12-0.814,0.179C62.258,51.762,58.185,43.707,56.161,43.707z M51.363,55.489
	c1.078,1.964,0.075,3.799,0.027,3.886c-0.025,0.045-0.034,0.093-0.046,0.141c-0.12,0.017-0.238,0.035-0.363,0.047
	c0.055-0.078,0.098-0.166,0.109-0.268c0.009-0.081,0.193-2.001-1.559-3.953c-2.358-2.626-6.915-3.995-13.539-4.08
	c0.154-0.293,0.314-0.583,0.48-0.872c0.084,0.057,0.179,0.1,0.288,0.105C46.869,51.049,50.281,53.517,51.363,55.489z M48.062,56.92
	c-1.384-1.591-4.732-3.6-12.789-4.183c0.046-0.103,0.096-0.206,0.143-0.309c8.163,0.013,11.691,1.996,13.21,3.662
	c1.416,1.552,1.304,3.014,1.298,3.084c-0.016,0.163,0.037,0.316,0.134,0.433c-0.32,0.003-0.652-0.003-1-0.025
	c0.03-0.064,0.05-0.133,0.055-0.208C49.122,59.256,49.164,58.187,48.062,56.92z M34.618,54.421c0.065-0.194,0.135-0.387,0.207-0.58
	c0.056,0.023,0.114,0.044,0.177,0.049c12.862,0.884,12.943,5.32,12.942,5.411c-0.003,0.061,0.011,0.118,0.026,0.175
	c-0.363-0.045-0.737-0.1-1.125-0.169c-0.011-0.206-0.083-0.526-0.362-0.911C45.625,57.21,42.866,55.559,34.618,54.421z
	 M45.501,59.037c-0.193-0.044-0.384-0.086-0.583-0.134c-0.69-0.356-6.12-3.082-10.661-3.257c0.009-0.036,0.015-0.072,0.024-0.108
	c0.032,0.01,0.06,0.028,0.095,0.033C42.858,56.732,44.975,58.345,45.501,59.037z M37.1,49.344c0.644-1.026,1.344-2.021,2.07-2.967
	c0.003,0,0.006,0.003,0.009,0.003c0.159,0.017,0.295,0.041,0.441,0.062c-0.577,0.708-1.251,1.798-1.196,2.992
	C37.994,49.399,37.549,49.371,37.1,49.344z M42.85,48.596c-0.646,0.544-1.214,0.936-1.642,1.043
	c-0.056,0.014-0.103,0.043-0.15,0.071c-0.468-0.062-0.95-0.117-1.445-0.167c-0.164-1.163,0.864-2.352,1.33-2.822
	c1.01,0.303,1.501,0.704,1.725,1.04C42.938,48.167,42.866,48.529,42.85,48.596z M40.014,45.313c0.021-0.026,0.043-0.052,0.064-0.079
	c0.044,0.011,0.087,0.028,0.135,0.028c1.806,0.014,3.009,0.39,3.48,1.088c0.3,0.445,0.242,0.942,0.18,1.201
	c-0.052-0.129-0.115-0.261-0.201-0.396C43.081,46.228,41.849,45.61,40.014,45.313z M41.746,44.199
	c1.485-0.123,2.635,0.103,3.343,0.663c0.436,0.345,0.611,0.737,0.682,0.972c-0.114,0.113-0.228,0.224-0.341,0.336
	c-0.134,0.132-0.266,0.262-0.399,0.392c-0.059-0.277-0.169-0.567-0.356-0.85C44.147,44.914,43.163,44.408,41.746,44.199z
	 M42.005,43.008c0.28-0.306,0.557-0.604,0.827-0.888c2.133,0.53,4.134,1.15,5.251,1.513c-0.482,0.435-0.954,0.881-1.415,1.326
	c-0.169-0.317-0.425-0.669-0.816-0.987C44.957,43.244,43.662,42.924,42.005,43.008z M43.777,41.151
	c0.241-0.242,0.475-0.474,0.7-0.693c2.267,0.593,4.257,1.275,5.374,1.682c-0.248,0.193-0.495,0.393-0.739,0.597
	C48.371,42.489,46.214,41.783,43.777,41.151z M45.47,39.511c0.294-0.274,0.559-0.516,0.795-0.727
	c2.395,0.748,4.313,1.591,5.386,2.104c-0.222,0.134-0.443,0.276-0.663,0.424C50.279,41.042,48.112,40.239,45.47,39.511z
	 M47.298,37.885c0.034-0.028,0.056-0.046,0.06-0.05c0.205-0.169,0.848-0.573,1.36-0.402c0.456,0.152,0.742,0.733,0.918,1.299
	C48.939,38.455,48.152,38.167,47.298,37.885z M50.997,39.298c-0.06-0.026-0.118-0.052-0.18-0.078
	c0.065-0.122,0.092-0.266,0.057-0.411c-0.334-1.372-0.938-2.211-1.794-2.491c-1.237-0.408-2.423,0.576-2.467,0.612
	c-0.036,0.03-3.649,2.99-7.14,7.176c-4.507,5.404-6.784,10.299-6.786,14.566c-0.112-0.006-0.22-0.013-0.331-0.019
	c0.378-11.933,13.102-21.507,13.223-21.596c0.777-0.551,3.068-1.826,4.339-1.128C50.855,36.443,51.031,37.984,50.997,39.298z
	 M33.924,57.483c0.024-0.225,0.06-0.451,0.097-0.677c4.512,0.095,10.357,3.136,10.417,3.168c0.042,0.022,0.086,0.039,0.132,0.05
	c2.027,0.5,3.807,0.749,5.335,0.749c2.523,0,4.358-0.68,5.481-2.038c2.787-3.37,0.015-9.517-0.104-9.777
	c-0.044-0.096-0.116-0.167-0.196-0.224c0.189-0.159,0.374-0.3,0.552-0.406c0.546,1.28,1.844,4.719,1.494,7.695
	c-0.001,0.009-0.001,0.017-0.002,0.026c-0.098,0.814-0.325,1.591-0.721,2.281c-0.054,0.061-0.097,0.13-0.122,0.209
	c-0.081,0.126-0.168,0.25-0.263,0.369c-1.865,2.363-5.982,2.852-12.239,1.454c-0.987-0.387-1.814-0.734-2.547-1.04
	C38.598,58.215,37.139,57.603,33.924,57.483z M35.737,58.805c-0.636-0.022-1.259-0.047-1.872-0.076c0-0.026-0.001-0.051-0.001-0.077
	C34.569,58.679,35.18,58.73,35.737,58.805z M68.093,56.054c-0.343-1.011-1.149-3.272-2.315-5.809
	c4.805,1.137,6.547,2.395,6.547,3.215C72.325,54.224,70.961,55.165,68.093,56.054z M57.135,40.962
	c4.88,1.789,8.921,12.782,9.828,15.418c-0.107,0.029-0.22,0.057-0.331,0.086c-1.494-3.375-6.913-15.032-10.483-15.032
	c-0.044,0-0.089,0.002-0.132,0.006c-2.232,0.185-4.659,2.367-7.228,4.677c-1.703,1.531-3.465,3.114-4.999,3.881
	c-0.068,0.034-0.124,0.081-0.172,0.134c-0.217-0.044-0.439-0.085-0.663-0.125c0.95-0.692,2.038-1.76,3.298-3.002
	C49.56,43.747,53.675,39.693,57.135,40.962z M42.781,36.532c0.046-0.041,4.583-4.058,7.498-2.172
	c2.463,1.594,2.616,4.761,2.594,5.824c-0.176-0.091-0.43-0.218-0.752-0.372c0.016-0.049,0.036-0.098,0.038-0.152
	c0.124-2.479-0.441-4.08-1.677-4.758c-2.167-1.19-5.443,1.1-5.591,1.205c-0.14,0.104-3.47,2.586-6.849,6.671
	c-3.042,3.676-6.637,9.358-6.855,15.804c-0.361-0.024-0.717-0.048-1.069-0.074C28.868,49.76,42.65,36.656,42.781,36.532z
	 M28.92,58.413c-0.725-0.06-1.43-0.125-2.115-0.194c0.809-1.591,1.786-1.859,2.107-1.902C28.844,57.031,28.844,57.731,28.92,58.413z
	 M25.573,58.088c-0.211-0.024-0.417-0.049-0.624-0.073c1.366-2.535,3.292-3.223,4.245-3.411c-0.042,0.181-0.074,0.36-0.108,0.54
	c-0.009-0.001-0.016-0.006-0.025-0.006C28.962,55.136,26.898,55.086,25.573,58.088z M23.723,57.86
	c-0.231-0.031-0.461-0.061-0.686-0.093c1.753-3.842,5.272-4.837,6.722-5.083c-0.081,0.23-0.156,0.459-0.227,0.688
	C28.655,53.449,25.596,54.006,23.723,57.86z M21.826,57.589c-0.23-0.036-0.458-0.072-0.681-0.108
	c2.135-6.156,9.41-6.954,9.486-6.962c0.011-0.001,0.021-0.008,0.032-0.01c-0.147,0.31-0.285,0.621-0.417,0.932
	C29.489,51.512,24.081,52.21,21.826,57.589z M19.702,49.96c0.229-0.23,0.458-0.457,0.685-0.676c0.536,1.409,1.34,4.664-0.852,7.912
	c-0.424-0.08-0.835-0.162-1.23-0.245C20.235,53.706,19.905,50.924,19.702,49.96z M17.087,56.682
	c-0.943-0.223-1.785-0.454-2.531-0.69c1.395-1.877,2.77-3.528,4.113-4.964C18.758,52.232,18.601,54.321,17.087,56.682z
	 M20.365,47.747c-0.02,0.008-0.04,0.008-0.059,0.018c-0.108,0.059-0.181,0.151-0.233,0.253c-0.441,0.414-0.868,0.829-1.28,1.245
	c-0.119,0.061-0.213,0.152-0.267,0.268c-2.197,2.248-3.951,4.452-5.136,6.062c-0.228-0.086-0.439-0.172-0.641-0.258
	c6.399-11.335,16.399-15.711,23.638-16.022c0.626-0.027,1.315-0.011,2.056,0.047c-0.192,0.215-0.388,0.438-0.588,0.668
	c-0.464-0.038-0.901-0.059-1.283-0.055c-3.485,0.06-6.794,1.244-9.796,2.977c-0.004,0.002-0.007,0.004-0.011,0.006
	c-0.66,0.381-1.304,0.789-1.933,1.217c-0.088,0.031-0.165,0.086-0.23,0.156c-0.56,0.388-1.106,0.792-1.638,1.207
	c-0.112,0.04-0.204,0.117-0.275,0.217c-0.435,0.346-0.86,0.699-1.274,1.057c-0.067,0.024-0.132,0.057-0.188,0.106
	c-0.055,0.048-0.095,0.107-0.127,0.17C20.849,47.305,20.605,47.525,20.365,47.747z M27.698,43.79
	c0.195-0.107,0.387-0.207,0.578-0.305c0.656,1.964,3.317,2.856,4.549,3.166c-0.086,0.134-0.17,0.268-0.254,0.403
	C31.236,46.759,28.216,45.7,27.698,43.79z M31.937,48.103c-0.298,0.512-0.586,1.028-0.853,1.548c-0.11-0.197-0.328-0.32-0.568-0.299
	c-0.015,0.001-0.282,0.031-0.719,0.115c0-1.072-0.493-2.011-1.157-2.789C29.834,47.465,31.202,47.907,31.937,48.103z M21.303,48.425
	c0.149-0.136,0.297-0.263,0.445-0.393c1.912,0.691,2.48,2.283,2.589,3.626c-0.781,0.518-1.544,1.149-2.23,1.917
	C22.361,51.215,21.668,49.258,21.303,48.425z M22.743,47.183c0.168-0.138,0.335-0.275,0.502-0.407
	c0.862,0.44,3.182,1.824,3.032,3.812c-0.276,0.125-0.556,0.261-0.839,0.412C25.154,49.234,24.221,47.918,22.743,47.183z
	 M24.263,45.997c0.276-0.204,0.55-0.399,0.821-0.587c0.939,0.494,3.761,2.173,3.512,4.34c-0.353,0.098-0.74,0.218-1.151,0.365
	C27.29,48.069,25.414,46.667,24.263,45.997z M26.185,44.681c0.162-0.102,0.323-0.199,0.483-0.295
	c0.125,0.344,0.295,0.663,0.51,0.953C26.823,45.077,26.48,44.856,26.185,44.681z M29.338,42.965
	c0.323-0.148,0.639-0.283,0.948-0.409c0.058,0.21,0.142,0.416,0.27,0.609c0.712,1.068,2.364,1.632,3.342,1.883
	c-0.129,0.184-0.255,0.37-0.382,0.557C32.858,45.465,29.756,44.712,29.338,42.965z M31.532,42.516
	c-0.082-0.123-0.127-0.246-0.144-0.374c0.252-0.087,0.497-0.166,0.737-0.239c0.096,0.237,0.241,0.454,0.433,0.644
	c0.629,0.625,1.659,0.875,2.454,0.975c-0.124,0.164-0.248,0.329-0.372,0.496C33.84,43.851,32.08,43.338,31.532,42.516z
	 M33.385,41.716c-0.041-0.041-0.06-0.087-0.09-0.131c1.367-0.324,2.488-0.427,3.296-0.441c0.094-0.002,0.205,0.004,0.306,0.005
	c-0.339,0.406-0.682,0.826-1.028,1.262C35.223,42.394,33.924,42.251,33.385,41.716z M31.313,37.9
	c2.66-0.722,5.652-0.871,8.901-0.457c-0.25,0.261-0.516,0.541-0.802,0.849c-0.028-0.007-0.051-0.023-0.08-0.026
	c-1.093-0.122-2.101-0.164-2.996-0.125c-7.566,0.325-18.009,4.878-24.642,16.676c-0.218-0.125-0.41-0.25-0.571-0.373
	c0.013-0.018,0.028-0.033,0.039-0.053C16.554,44.482,21.262,40.629,31.313,37.9z M11.919,31.89l10.304-10.304
	c0.313,0.042,0.627,0.083,0.92,0.127l-10.541,10.54C12.372,32.142,12.144,32.02,11.919,31.89z M10.33,30.776l9.458-9.458
	c0.325,0.029,0.643,0.058,0.955,0.092l-9.828,9.828C10.717,31.091,10.521,30.937,10.33,30.776z M8.963,29.438l8.263-8.263
	c0.007-0.007,0.01-0.017,0.017-0.025c0.34,0.013,0.67,0.034,1.002,0.053l-8.773,8.773C9.299,29.802,9.129,29.625,8.963,29.438z
	 M7.779,27.917l6.778-6.778c0.283-0.005,0.552-0.027,0.839-0.027c0.078,0,0.153,0.004,0.231,0.004l-7.408,7.408
	C8.07,28.326,7.922,28.126,7.779,27.917z M5.189,22.546c0.394-0.127,0.818-0.224,1.229-0.334l-0.997,0.997
	C5.342,22.989,5.262,22.771,5.189,22.546z M9.84,21.494l-3.635,3.635c-0.11-0.238-0.219-0.478-0.323-0.725l2.678-2.678
	C8.985,21.646,9.401,21.557,9.84,21.494z M6.756,26.235l4.836-4.836c0.03-0.03,0.045-0.067,0.068-0.102
	c0.394-0.036,0.781-0.08,1.185-0.104l-5.709,5.709C7.006,26.684,6.879,26.463,6.756,26.235z M24.561,21.954
	c0.003-0.003,0.003-0.006,0.006-0.009c0.312,0.055,0.614,0.109,0.888,0.162L14.602,32.959c-0.277-0.063-0.55-0.14-0.819-0.228
	L24.561,21.954z M15.934,33.285l-0.013,0.419v-0.406L15.934,33.285z M15.614,34.278c0.103,0.003,0.203,0.012,0.307,0.012h0.021
	c0.391-0.001,0.759-0.033,1.126-0.067c0.084,0.05,0.173,0.083,0.267,0.088l-0.196,8.321c-0.009,0.386,0.172,0.73,0.455,0.951
	c-0.43,0.399-0.849,0.819-1.26,1.258c-0.234-0.244-0.568-0.378-0.923-0.354L15.614,34.278z M16.108,33.111l10.024-10.024
	c-0.172,0.551-0.356,1.086-0.555,1.603l-8.347,8.347C16.867,33.078,16.495,33.105,16.108,33.111z M19.373,32.581
	c-0.013,0.004-0.028,0.007-0.041,0.012l4.722-4.722C22.756,30.066,21.168,31.719,19.373,32.581z M3.752,12.957
	c0-0.932,4.295-2.672,12.506-2.672c6.669,0,10.926,1.89,11.349,2.729c0,0.093-0.003,0.186-0.004,0.279
	c-1.507,0.902-5.999,2-11.923,2c-5.924,0-10.416-1.098-11.923-2C3.756,13.181,3.752,13.07,3.752,12.957z M15.68,16.465
	c4.027,0,9.221-0.591,11.889-1.864c-0.099,2.315-0.406,4.523-0.891,6.558c-2.202-0.468-6.486-1.218-11.282-1.218
	c-0.333,0-0.645,0.025-0.972,0.032c-0.077-0.013-0.154-0.011-0.23,0.008c-3.46,0.094-6.599,0.569-9.34,1.451
	c-0.581-2.095-0.947-4.392-1.06-6.829C6.463,15.874,11.654,16.465,15.68,16.465z M14.437,47.074
	c-0.978,1.266-1.926,2.674-2.871,4.248c-0.191-0.185-0.484-0.232-0.717-0.081c-1.048,0.672-1.58,1.419-1.58,2.219
	c0,1.282,1.48,2.391,3.971,3.314c0.004,0.003,0.005,0.007,0.009,0.01c0.101,0.073,0.217,0.108,0.332,0.11
	c1.03,0.362,2.217,0.695,3.533,0.997c0.075,0.033,0.154,0.056,0.234,0.056c0.002,0,0.004-0.001,0.006-0.001
	c0.714,0.16,1.462,0.312,2.244,0.454c0.067,0.025,0.135,0.041,0.205,0.041c0.002,0,0.005-0.002,0.007-0.002
	c0.127,0.023,0.259,0.044,0.388,0.067c0.012,0.004,0.02,0.013,0.032,0.016c0.052,0.014,0.104,0.021,0.155,0.021
	c0.005,0,0.01-0.002,0.015-0.002c0.536,0.091,1.083,0.18,1.645,0.263c0.05,0.013,0.1,0.027,0.151,0.027
	c0.005,0,0.01-0.002,0.015-0.002c0.578,0.084,1.171,0.164,1.772,0.24c0.027,0.004,0.053,0.017,0.08,0.017
	c0.008,0,0.016-0.003,0.025-0.004c0.586,0.073,1.18,0.144,1.786,0.21c0.024,0.003,0.047,0.013,0.071,0.013
	c0.008,0,0.015-0.003,0.022-0.003c1.164,0.125,2.361,0.235,3.582,0.33c0.02,0.002,0.039,0.01,0.059,0.01
	c0.01,0,0.02-0.003,0.03-0.003c0.686,0.053,1.38,0.1,2.079,0.144c0.013,0.001,0.024,0.008,0.038,0.008h0.001
	c0.007,0,0.013-0.004,0.02-0.004c0.491,0.03,0.984,0.058,1.48,0.084c0.011,0.001,0.02,0.006,0.031,0.006
	c0.011,0,0.022,0,0.033-0.001c0.002,0,0.003-0.001,0.005-0.001c2.037,0.104,4.11,0.17,6.181,0.193c0.002,0,0.005,0,0.007,0
	c0.101,0,0.192-0.033,0.275-0.078c0.315,0.129,0.646,0.267,1.001,0.417c0.75,0.314,1.598,0.67,2.615,1.067
	c0.027,0.011,0.056,0.019,0.085,0.026c0.005,0.001,0.01,0.002,0.015,0.003c-0.593,0.006-1.187,0.011-1.791,0.011
	c-24.328,0-39.267-4.95-39.267-8.498C2.442,51.468,5.617,49.03,14.437,47.074z M42.547,73.035c-11.358,0-21.848-2.652-27.368-6.761
	c7.394,1.456,16.674,2.252,26.479,2.252c10.9,0,21.16-0.981,28.89-2.762c0.022-0.005,0.042-0.01,0.064-0.016
	C65.384,70.143,54.599,73.035,42.547,73.035z M80.971,58.026c0,3.406-14.956,8.156-39.313,8.156c-24.357,0-39.314-4.75-39.314-8.156
	c0-0.011-0.003-0.022-0.003-0.034c0-0.011,0.003-0.022,0.003-0.033v-1.232c6.001,4.653,23.092,7.128,39.365,7.128
	c16.188,0,33.182-2.449,39.267-7.056v1.16c0,0.004,0.001,0.007,0.001,0.011C80.976,57.989,80.971,58.007,80.971,58.026z"/>
<g>
</g>
<g>
</g>
<g>
</g>
<g>
</g>
<g>
</g>
<g>
</g>
<g>
</g>
<g>
</g>
<g>
</g>
<g>
</g>
<g>
</g>
<g>
</g>
<g>
</g>
<g>
</g>
<g>
</g>
</svg>
